<svg width="current" height="current" viewBox="0 0 76 20" fill="none" xmlns="http://www.w3.org/2000/svg">
<path d="M1.48794 15.8132V12.8271H5.30528C6.18095 12.8271 6.90953 12.6766 7.49102 12.3756C8.07252 12.0746 8.51035 11.5991 8.80451 10.9492C9.10552 10.2993 9.25603 9.44416 9.25603 8.38379C9.25603 7.32341 9.10552 6.46485 8.80451 5.80811C8.50351 5.15136 8.05883 4.6759 7.4705 4.38173C6.889 4.08757 6.157 3.94048 5.2745 3.94048H1.42637V0.954336H5.43869C6.94373 0.954336 8.24696 1.2485 9.34838 1.83684C10.4498 2.42518 11.2947 3.28031 11.883 4.40226C12.4714 5.5242 12.7655 6.85138 12.7655 8.38379C12.7655 9.9162 12.4714 11.24 11.883 12.3551C11.2947 13.4702 10.4498 14.3253 9.34838 14.9205C8.24696 15.5156 6.94373 15.8132 5.43869 15.8132H1.48794ZM3.48897 15.8132H0V0.954336H3.48897V15.8132Z" fill="black"/>
<path d="M18.3766 15.9774C17.5351 15.9774 16.7758 15.7585 16.0985 15.3207C15.4281 14.876 14.8945 14.2261 14.4977 13.371C14.1077 12.509 13.9128 11.4657 13.9128 10.2411C13.9128 8.98923 14.1146 7.93227 14.5182 7.07029C14.9218 6.20831 15.4589 5.56867 16.1293 5.15136C16.7997 4.73405 17.5454 4.5254 18.3663 4.5254C18.8931 4.5254 19.3583 4.61091 19.7619 4.78194C20.1724 4.95297 20.5076 5.1753 20.7676 5.44895C21.0344 5.72259 21.2533 6.03728 21.4243 6.39302C21.4448 6.43407 21.4585 6.46485 21.4654 6.48538C21.4722 6.49906 21.4859 6.52984 21.5064 6.57773H21.5885V4.66906H25.0467V15.8132H21.6296V14.0174H21.5064L21.4448 14.1406C21.2738 14.4963 21.0515 14.8076 20.7778 15.0744C20.5042 15.3412 20.1656 15.5601 19.7619 15.7311C19.3583 15.8953 18.8965 15.9774 18.3766 15.9774ZM19.5464 13.2683C19.9843 13.2683 20.3639 13.1418 20.6855 12.8887C21.007 12.6355 21.2499 12.2832 21.4141 11.8317C21.5851 11.3802 21.674 10.8466 21.6809 10.2309C21.674 9.61519 21.5851 9.08158 21.4141 8.63007C21.2499 8.17855 21.007 7.83308 20.6855 7.59364C20.3708 7.3542 19.9911 7.23448 19.5464 7.23448C19.1086 7.23448 18.7323 7.35762 18.4176 7.6039C18.103 7.84334 17.8601 8.18882 17.6891 8.64033C17.5249 9.09184 17.4428 9.62203 17.4428 10.2309C17.4428 10.8466 17.5283 11.3802 17.6993 11.8317C17.8704 12.2832 18.1098 12.6355 18.4176 12.8887C18.7323 13.1418 19.1086 13.2683 19.5464 13.2683Z" fill="black"/>
<path d="M33.4974 8.11698C33.4495 7.74756 33.2716 7.4534 32.9638 7.23448C32.6559 7.01556 32.2728 6.90611 31.8145 6.90611C31.5271 6.90611 31.2672 6.94715 31.0346 7.02925C30.8088 7.1045 30.6275 7.21396 30.4907 7.35762C30.3539 7.50128 30.2889 7.66889 30.2957 7.86044C30.2889 8.0862 30.3847 8.28459 30.5831 8.45562C30.7815 8.61981 31.1098 8.74637 31.5682 8.8353L33.6924 9.24577C34.8006 9.45784 35.6215 9.81358 36.1552 10.313C36.6956 10.8055 36.9692 11.4554 36.9761 12.2627C36.9761 13.0084 36.7572 13.6651 36.3193 14.2329C35.8883 14.8008 35.2829 15.242 34.503 15.5567C33.73 15.8645 32.8441 16.0185 31.8453 16.0185C30.8054 16.0185 29.9024 15.8714 29.1362 15.5772C28.3768 15.2831 27.7782 14.8657 27.3404 14.3253C26.9094 13.778 26.6528 13.1315 26.5708 12.3858H30.0289C30.0973 12.7826 30.2923 13.0871 30.6139 13.2991C30.9354 13.5044 31.3527 13.6036 31.8658 13.5967C32.1873 13.6036 32.4678 13.5694 32.7072 13.4941C32.9467 13.4188 33.1314 13.3094 33.2614 13.1657C33.3982 13.0152 33.4666 12.8408 33.4666 12.6424C33.4598 12.3893 33.3435 12.184 33.1177 12.0267C32.8919 11.8625 32.5396 11.7291 32.0607 11.6265L30.1521 11.2673C29.0643 11.0689 28.24 10.6995 27.679 10.1591C27.1249 9.61177 26.8512 8.91739 26.8581 8.07594C26.8581 7.34394 27.053 6.71113 27.443 6.17753C27.8398 5.63708 28.4076 5.22661 29.1464 4.94613C29.8853 4.66564 30.7541 4.5254 31.7529 4.5254C32.738 4.5254 33.5966 4.67248 34.3286 4.96665C35.0606 5.25398 35.6284 5.66786 36.032 6.20831C36.4425 6.74876 36.6682 7.38498 36.7093 8.11698H33.4974Z" fill="black"/>
<path d="M41.9686 15.8132H38.5104V0.954336H41.8557V6.69061H41.9686C42.2286 6.0065 42.6459 5.47631 43.2205 5.10005C43.7952 4.71695 44.493 4.5254 45.3139 4.5254C46.0938 4.5254 46.7745 4.69985 47.356 5.04874C47.9443 5.3908 48.3958 5.87652 48.7105 6.5059C49.032 7.13528 49.1928 7.86728 49.1928 8.7019V15.8132H45.7346V9.36891C45.7346 8.9516 45.6628 8.59244 45.5191 8.29143C45.3755 7.99042 45.1634 7.76125 44.8829 7.6039C44.6093 7.43971 44.2809 7.35762 43.8978 7.35762C43.5147 7.35762 43.1795 7.44313 42.8921 7.61416C42.6048 7.77835 42.3791 8.01779 42.2149 8.33248C42.0507 8.64033 41.9686 9.00633 41.9686 9.43048V15.8132Z" fill="black"/>
<path d="M51.1684 4.66906H54.6266V15.8132H51.1684V4.66906ZM52.8924 3.33504C52.564 3.33504 52.263 3.25979 51.9893 3.10929C51.7225 2.95878 51.5036 2.75697 51.3326 2.50385C51.1684 2.25073 51.0863 1.97366 51.0863 1.67265C51.0863 1.37164 51.1684 1.09458 51.3326 0.841457C51.5036 0.581495 51.7225 0.376261 51.9893 0.225757C52.263 0.0752523 52.564 0 52.8924 0C53.2139 0 53.5115 0.0752523 53.7851 0.225757C54.0588 0.376261 54.2777 0.581495 54.4419 0.841457C54.6061 1.09458 54.6881 1.37164 54.6881 1.67265C54.6881 1.97366 54.6061 2.25073 54.4419 2.50385C54.2777 2.75697 54.0588 2.95878 53.7851 3.10929C53.5115 3.25979 53.2139 3.33504 52.8924 3.33504Z" fill="black"/>
<path d="M62.9028 7.21396H55.7812V4.66906H62.9028V7.21396ZM57.3102 4.05336C57.3102 3.22559 57.4641 2.52779 57.772 1.95998C58.0867 1.39217 58.5245 0.968018 59.0855 0.687532C59.6533 0.400205 60.3271 0.256542 61.107 0.256542C61.497 0.256542 61.8493 0.273645 62.164 0.30785C62.4787 0.342056 62.7934 0.393364 63.1081 0.461775V3.01693C62.7934 2.99641 62.5402 2.97246 62.3487 2.9451C62.3008 2.95194 62.2632 2.95536 62.2358 2.95536C62.2084 2.94852 62.1811 2.9451 62.1537 2.9451C61.6954 2.95194 61.3499 3.05114 61.1173 3.24269C60.8847 3.4274 60.7684 3.72157 60.7684 4.12519V15.8132H57.3102V4.05336Z" fill="black"/>
<path d="M66.3766 20C65.5351 19.9863 64.9571 19.9658 64.6424 19.9384V17.3114C64.9434 17.332 65.3983 17.3456 66.0072 17.3525C66.2261 17.3525 66.4142 17.332 66.5716 17.2909C66.7289 17.2567 66.8657 17.1815 66.982 17.0652C67.1052 16.9557 67.2146 16.7847 67.3104 16.5521L67.4541 16.2032L63.4828 4.66906H67.0949L69.2088 12.6629H69.332L71.4561 4.66906H75.099L70.8815 16.901C70.5394 17.8861 70.0127 18.6455 69.3012 19.1791C68.5897 19.7195 67.6148 19.9932 66.3766 20Z" fill="black"/>
<path opacity="0.1" d="M0 18.6516C0 17.9262 0.588069 17.3381 1.31349 17.3381H61.9969V19.9651H1.31349C0.588069 19.9651 0 19.377 0 18.6516V18.6516Z" fill="black"/>
</svg>
