<svg width="current" height="current" viewBox="0 0 24 24" fill="none" xmlns="http://www.w3.org/2000/svg">
<rect x="3" y="3" width="18" height="18" rx="3" stroke="currentColor" stroke-width="2"/>
<path opacity="0.4" d="M12.5 6C13.5126 6 14.5055 6.27952 15.3693 6.80777C16.2332 7.33601 16.9344 8.09247 17.3958 8.99379C17.8572 9.89512 18.0608 10.9063 17.9842 11.916C17.9077 12.9256 17.5538 13.8946 16.9618 14.716L12.5 11.5V6Z" fill="currentColor"/>
<path fill-rule="evenodd" clip-rule="evenodd" d="M11 7.02283C10.2304 7.09308 9.48236 7.32492 8.80547 7.70532C7.98415 8.16688 7.29516 8.83169 6.80456 9.636C6.31396 10.4403 6.03819 11.3572 6.00369 12.2987C5.96919 13.2402 6.17712 14.1747 6.60754 15.0128C7.03796 15.8509 7.67645 16.5643 8.46179 17.0847C9.24713 17.6052 10.153 17.9151 11.0925 17.9849C12.0321 18.0547 12.9738 17.882 13.8274 17.4833C14.681 17.0847 15.4179 16.4734 15.9675 15.7081L11.5 12.5001L11.5 12.4981L11 12.1407V7.02283Z" fill="currentColor"/>
</svg>
