<svg width="current" height="current" viewBox="0 0 24 24" fill="none" xmlns="http://www.w3.org/2000/svg">
<path d="M10 3.5C10 2.67157 10.6716 2 11.5 2H12.5C13.3284 2 14 2.67157 14 3.5V6H10V3.5Z" fill="currentColor"/>
<path d="M14 20.5C14 21.3284 13.3284 22 12.5 22L11.5 22C10.6716 22 10 21.3284 10 20.5L10 18L14 18L14 20.5Z" fill="currentColor"/>
<path d="M18.3612 6.01794C19.0787 5.60373 19.9961 5.84954 20.4103 6.56698L20.9103 7.43301C21.3245 8.15045 21.0787 9.06783 20.3612 9.48205L18.1962 10.732L16.1962 7.26794L18.3612 6.01794Z" fill="currentColor"/>
<path d="M5.63876 17.9821C4.92132 18.3963 4.00394 18.1505 3.58972 17.433L3.08972 16.567C2.67551 15.8496 2.92132 14.9322 3.63876 14.518L5.80382 13.268L7.80382 16.7321L5.63876 17.9821Z" fill="currentColor"/>
<path d="M20.3612 14.5181C21.0787 14.9323 21.3245 15.8497 20.9103 16.5671L20.4103 17.4331C19.9961 18.1506 19.0787 18.3964 18.3612 17.9822L16.1962 16.7322L18.1962 13.2681L20.3612 14.5181Z" fill="currentColor"/>
<path d="M3.63876 9.48218C2.92132 9.06796 2.67551 8.15058 3.08972 7.43314L3.58972 6.56711C4.00394 5.84968 4.92132 5.60386 5.63876 6.01808L7.80382 7.26808L5.80382 10.7322L3.63876 9.48218Z" fill="currentColor"/>
<path fill-rule="evenodd" clip-rule="evenodd" d="M12 16.5C14.4853 16.5 16.5 14.4853 16.5 12C16.5 9.51472 14.4853 7.5 12 7.5C9.51472 7.5 7.5 9.51472 7.5 12C7.5 14.4853 9.51472 16.5 12 16.5ZM12 19C15.866 19 19 15.866 19 12C19 8.13401 15.866 5 12 5C8.13401 5 5 8.13401 5 12C5 15.866 8.13401 19 12 19Z" fill="currentColor"/>
</svg>
