<svg width="current" height="current" viewBox="0 0 24 24" fill="none" xmlns="http://www.w3.org/2000/svg">
<circle cx="12" cy="12" r="9" stroke="currentColor" stroke-width="2"/>
<mask id="mask0_158_124" style="mask-type:alpha" maskUnits="userSpaceOnUse" x="2" y="2" width="20" height="20">
<circle cx="12" cy="12" r="10" fill="#D9D9D9"/>
</mask>
<g mask="url(#mask0_158_124)">
<path opacity="0.4" d="M9.36891 2.75113L9.89609 0.915404C10.0113 0.514196 10.2898 0.179839 10.6635 -0.00607657C10.98 -0.163528 11.3423 -0.203138 11.6853 -0.117809L12.5077 0.0867324C13.0201 0.214186 13.5621 0.13382 14.0155 -0.136832L15.421 -0.975812C15.7966 -1.20002 16.0884 -1.54119 16.2515 -1.94705L16.5728 -2.74606C16.8774 -3.50364 17.6119 -4 18.4284 -4H18.9007C19.7447 -4 20.4979 -3.47013 20.7831 -2.67573L22.5878 2.35162C22.8409 3.05677 22.6787 3.84427 22.1675 4.39198L17.0365 9.88944C16.4695 10.497 15.5122 10.5147 14.9231 9.92857L14.5589 9.56629C14.4432 9.4511 14.3137 9.35053 14.1735 9.26682L12.4385 8.23114C11.9757 7.9549 11.6923 7.45564 11.6923 6.91668C11.6923 6.4503 11.4797 6.00935 11.1148 5.71891L10.0457 4.86802C9.41274 4.36422 9.1456 3.5287 9.36891 2.75113Z" fill="currentColor"/>
<path opacity="0.4" d="M6.37423 9.91268L3.73219 9.9846C3.4221 9.99304 3.11821 10.0735 2.84457 10.2196L1.16281 11.1176C0.0480685 11.7128 -0.242088 13.1799 0.562133 14.1547L3.65165 17.8994C3.84456 18.1332 4.0881 18.3201 4.36386 18.446L10.2715 21.1427C11.1542 21.5456 12.1969 21.1657 12.6134 20.2893L13.0641 19.3412C13.4522 18.5247 12.8091 17.5948 11.9082 17.6697C11.3614 17.7151 10.8562 17.3752 10.6923 16.8516L9.65249 13.5304C9.60619 13.3825 9.54285 13.2405 9.46374 13.1072L8.14855 10.8912C7.77832 10.2674 7.09935 9.89295 6.37423 9.91268Z" fill="currentColor"/>
<path opacity="0.4" d="M13.3497 13.7791L13.3563 13.7499C13.5063 13.0829 14.0111 12.5525 14.6698 12.3695L15.3084 12.1921C15.7555 12.0679 16.2319 12.1031 16.6559 12.2915L17.3742 12.6107C18.2709 13.0093 18.6726 14.0609 18.2699 14.9558C17.9839 15.5913 17.3518 16 16.6549 16H15.1264C14.9105 16 14.6964 15.9616 14.4939 15.8866C13.6385 15.5698 13.1495 14.669 13.3497 13.7791Z" fill="currentColor"/>
</g>
</svg>
