<svg width="24" height="24" viewBox="0 0 24 24" fill="none" xmlns="http://www.w3.org/2000/svg">
<g id="Frame 331">
<rect id="Rectangle 462" x="5" y="9" width="14" height="12" rx="1" stroke="black" stroke-width="2"/>
<path id="Rectangle 463" opacity="0.4" d="M11 3H13C14.6569 3 16 4.34315 16 6V9H8V6C8 4.34315 9.34315 3 11 3Z" stroke="black" stroke-width="2"/>
<path id="Union" fill-rule="evenodd" clip-rule="evenodd" d="M13 15.7324C13.5978 15.3866 14 14.7403 14 14C14 12.8954 13.1046 12 12 12C10.8954 12 10 12.8954 10 14C10 14.7403 10.4022 15.3866 11 15.7324V17C11 17.5523 11.4477 18 12 18C12.5523 18 13 17.5523 13 17V15.7324Z" fill="black"/>
</g>
</svg>
