<svg width="current" height="current" viewBox="0 0 24 24" fill="none" xmlns="http://www.w3.org/2000/svg">
<path fill-rule="evenodd" clip-rule="evenodd" d="M12 7C12 8.10457 11.1046 9 10 9C8.89543 9 8 8.10457 8 7C8 5.89543 8.89543 5 10 5C11.1046 5 12 5.89543 12 7ZM14 7C14 9.20914 12.2091 11 10 11C7.79086 11 6 9.20914 6 7C6 4.79086 7.79086 3 10 3C12.2091 3 14 4.79086 14 7ZM5 17C5 15.8954 5.89543 15 7 15H13C14.1046 15 15 15.8954 15 17V20H5V17ZM3 17C3 14.7909 4.79086 13 7 13H13C15.2091 13 17 14.7909 17 17V20V22H15H5H3V20V17Z" fill="currentColor"/>
<path opacity="0.4" fill-rule="evenodd" clip-rule="evenodd" d="M14 10.874C14.3196 10.9562 14.6547 11 15 11C17.2091 11 19 9.20914 19 7C19 4.79086 17.2091 3 15 3C14.6547 3 14.3196 3.04375 14 3.12602C15.7252 3.57006 17 5.13616 17 7C17 8.86384 15.7252 10.4299 14 10.874ZM20 22H22V17C22 14.7909 20.2091 13 18 13H16C18.2091 13 20 14.7909 20 17V22Z" fill="currentColor"/>
</svg>
