<svg width="72" height="20" viewBox="0 0 72 20" fill="none" xmlns="http://www.w3.org/2000/svg">
<path d="M1.49023 16V13.1582H5.12305C5.95638 13.1582 6.64974 13.015 7.20312 12.7285C7.75651 12.4421 8.17318 11.9896 8.45312 11.3711C8.73958 10.7526 8.88281 9.9388 8.88281 8.92969C8.88281 7.92057 8.73958 7.10352 8.45312 6.47852C8.16667 5.85352 7.74349 5.40104 7.18359 5.12109C6.63021 4.84115 5.93359 4.70117 5.09375 4.70117H1.43164V1.85938H5.25C6.68229 1.85938 7.92253 2.13932 8.9707 2.69922C10.0189 3.25911 10.8229 4.07292 11.3828 5.14062C11.9427 6.20833 12.2227 7.47135 12.2227 8.92969C12.2227 10.388 11.9427 11.6478 11.3828 12.709C10.8229 13.7702 10.0189 14.584 8.9707 15.1504C7.92253 15.7168 6.68229 16 5.25 16H1.49023ZM3.39453 16H0.0742188V1.85938H3.39453V16Z" fill="black"/>
<path d="M17.5625 16.1562C16.7617 16.1562 16.0391 15.9479 15.3945 15.5312C14.7565 15.1081 14.2487 14.4896 13.8711 13.6758C13.5 12.8555 13.3145 11.8626 13.3145 10.6973C13.3145 9.50586 13.5065 8.5 13.8906 7.67969C14.2747 6.85938 14.7858 6.25065 15.4238 5.85352C16.0618 5.45638 16.7715 5.25781 17.5527 5.25781C18.054 5.25781 18.4967 5.33919 18.8809 5.50195C19.2715 5.66471 19.5905 5.8763 19.8379 6.13672C20.0918 6.39714 20.3001 6.69661 20.4629 7.03516C20.4824 7.07422 20.4954 7.10352 20.502 7.12305C20.5085 7.13607 20.5215 7.16536 20.541 7.21094H20.6191V5.39453H23.9102V16H20.6582V14.291H20.541L20.4824 14.4082C20.3197 14.7467 20.1081 15.043 19.8477 15.2969C19.5872 15.5508 19.265 15.7591 18.8809 15.9219C18.4967 16.0781 18.0573 16.1562 17.5625 16.1562ZM18.6758 13.5781C19.0924 13.5781 19.4538 13.4577 19.7598 13.2168C20.0658 12.9759 20.2969 12.6406 20.4531 12.2109C20.6159 11.7812 20.7005 11.2734 20.707 10.6875C20.7005 10.1016 20.6159 9.59375 20.4531 9.16406C20.2969 8.73438 20.0658 8.4056 19.7598 8.17773C19.4603 7.94987 19.099 7.83594 18.6758 7.83594C18.2591 7.83594 17.901 7.95312 17.6016 8.1875C17.3021 8.41536 17.071 8.74414 16.9082 9.17383C16.752 9.60352 16.6738 10.1081 16.6738 10.6875C16.6738 11.2734 16.7552 11.7812 16.918 12.2109C17.0807 12.6406 17.3086 12.9759 17.6016 13.2168C17.901 13.4577 18.2591 13.5781 18.6758 13.5781Z" fill="black"/>
<path d="M31.9523 8.67578C31.9068 8.32422 31.7375 8.04427 31.4445 7.83594C31.1516 7.6276 30.787 7.52344 30.3508 7.52344C30.0773 7.52344 29.8299 7.5625 29.6086 7.64062C29.3937 7.71224 29.2212 7.81641 29.091 7.95312C28.9608 8.08984 28.899 8.24935 28.9055 8.43164C28.899 8.64648 28.9901 8.83529 29.1789 8.99805C29.3677 9.1543 29.6802 9.27474 30.1164 9.35938L32.1379 9.75C33.1926 9.95182 33.9738 10.2904 34.4816 10.7656C34.996 11.2344 35.2564 11.8529 35.2629 12.6211C35.2629 13.3307 35.0546 13.9557 34.6379 14.4961C34.2277 15.0365 33.6516 15.4564 32.9094 15.7559C32.1737 16.0488 31.3306 16.1953 30.3801 16.1953C29.3905 16.1953 28.5311 16.0553 27.802 15.7754C27.0793 15.4954 26.5096 15.0983 26.093 14.584C25.6828 14.0632 25.4387 13.4479 25.3605 12.7383H28.6516C28.7167 13.1159 28.9022 13.4056 29.2082 13.6074C29.5142 13.8027 29.9113 13.8971 30.3996 13.8906C30.7056 13.8971 30.9725 13.8646 31.2004 13.793C31.4283 13.7214 31.604 13.6172 31.7277 13.4805C31.8579 13.3372 31.923 13.1712 31.923 12.9824C31.9165 12.7415 31.8059 12.5462 31.591 12.3965C31.3762 12.2402 31.0409 12.1133 30.5852 12.0156L28.7687 11.6738C27.7336 11.485 26.9491 11.1335 26.4152 10.6191C25.8879 10.0983 25.6275 9.4375 25.634 8.63672C25.634 7.9401 25.8195 7.33789 26.1906 6.83008C26.5682 6.31576 27.1086 5.92513 27.8117 5.6582C28.5148 5.39128 29.3417 5.25781 30.2922 5.25781C31.2297 5.25781 32.0467 5.39779 32.7434 5.67773C33.44 5.95117 33.9803 6.34505 34.3645 6.85938C34.7551 7.3737 34.9699 7.97917 35.009 8.67578H31.9523Z" fill="black"/>
<path d="M40.0141 16H36.723V1.85938H39.9066V7.31836H40.0141C40.2615 6.66732 40.6586 6.16276 41.2055 5.80469C41.7523 5.4401 42.4164 5.25781 43.1977 5.25781C43.9398 5.25781 44.5876 5.42383 45.141 5.75586C45.7009 6.08138 46.1306 6.54362 46.4301 7.14258C46.7361 7.74154 46.8891 8.43815 46.8891 9.23242V16H43.598V9.86719C43.598 9.47005 43.5297 9.12826 43.393 8.8418C43.2562 8.55534 43.0544 8.33724 42.7875 8.1875C42.5271 8.03125 42.2146 7.95312 41.85 7.95312C41.4854 7.95312 41.1664 8.03451 40.893 8.19727C40.6195 8.35352 40.4047 8.58138 40.2484 8.88086C40.0922 9.17383 40.0141 9.52214 40.0141 9.92578V16Z" fill="black"/>
<path d="M48.7691 5.39453H52.0602V16H48.7691V5.39453ZM50.4098 4.125C50.0973 4.125 49.8108 4.05339 49.5504 3.91016C49.2965 3.76693 49.0882 3.57487 48.9254 3.33398C48.7691 3.0931 48.691 2.82943 48.691 2.54297C48.691 2.25651 48.7691 1.99284 48.9254 1.75195C49.0882 1.50456 49.2965 1.30924 49.5504 1.16602C49.8108 1.02279 50.0973 0.951172 50.4098 0.951172C50.7158 0.951172 50.999 1.02279 51.2594 1.16602C51.5198 1.30924 51.7281 1.50456 51.8844 1.75195C52.0406 1.99284 52.1188 2.25651 52.1188 2.54297C52.1188 2.82943 52.0406 3.0931 51.8844 3.33398C51.7281 3.57487 51.5198 3.76693 51.2594 3.91016C50.999 4.05339 50.7158 4.125 50.4098 4.125Z" fill="black"/>
<path d="M59.9363 7.81641H53.159V5.39453H59.9363V7.81641ZM54.6141 4.80859C54.6141 4.02083 54.7605 3.35677 55.0535 2.81641C55.353 2.27604 55.7697 1.8724 56.3035 1.60547C56.8439 1.33203 57.4852 1.19531 58.2273 1.19531C58.5984 1.19531 58.9337 1.21159 59.2332 1.24414C59.5327 1.27669 59.8322 1.32552 60.1316 1.39062V3.82227C59.8322 3.80273 59.5913 3.77995 59.409 3.75391C59.3634 3.76042 59.3276 3.76367 59.3016 3.76367C59.2755 3.75716 59.2495 3.75391 59.2234 3.75391C58.7872 3.76042 58.4585 3.85482 58.2371 4.03711C58.0158 4.21289 57.9051 4.49284 57.9051 4.87695V16H54.6141V4.80859Z" fill="black"/>
<path d="M63.2422 19.9844C62.4414 19.9714 61.8913 19.9518 61.5918 19.9258V17.4258C61.8783 17.4453 62.3112 17.4583 62.8906 17.4648C63.099 17.4648 63.278 17.4453 63.4277 17.4062C63.5775 17.3737 63.7077 17.3021 63.8184 17.1914C63.9355 17.0872 64.0397 16.9245 64.1309 16.7031L64.2676 16.3711L60.4883 5.39453H63.9258L65.9375 13.002H66.0547L68.0762 5.39453H71.543L67.5293 17.0352C67.2038 17.9727 66.7025 18.6953 66.0254 19.2031C65.3483 19.7174 64.4206 19.9779 63.2422 19.9844Z" fill="black"/>
</svg>
